<mxfile host="65bd71144e">
    <diagram id="ELgcxT8Ve2Rk_-bsZDCu" name="Page-1">
        <mxGraphModel dx="1277" dy="947" grid="1" gridSize="10" guides="1" tooltips="1" connect="1" arrows="1" fold="1" page="1" pageScale="1" pageWidth="850" pageHeight="1100" math="0" shadow="0">
            <root>
                <mxCell id="0"/>
                <mxCell id="1" parent="0"/>
                <mxCell id="3" value="&lt;font style=&quot;font-size: 21px;&quot;&gt;&amp;lt;Home /&amp;gt;&lt;/font&gt;" style="rounded=1;whiteSpace=wrap;html=1;movable=0;arcSize=15;align=right;connectable=0;allowArrows=0;snapToPoint=0;" parent="1" vertex="1">
                    <mxGeometry x="130" y="130" width="490" height="440" as="geometry"/>
                </mxCell>
                <mxCell id="42" value="" style="group" vertex="1" connectable="0" parent="1">
                    <mxGeometry x="220" y="150" width="290" height="200" as="geometry"/>
                </mxCell>
                <mxCell id="35" style="edgeStyle=none;html=1;entryX=0.5;entryY=0;entryDx=0;entryDy=0;fontSize=21;fontColor=#231b1b;deletable=0;" parent="42" target="32" edge="1">
                    <mxGeometry relative="1" as="geometry">
                        <mxPoint x="113.18273119869855" y="64.24172861051534" as="sourcePoint"/>
                    </mxGeometry>
                </mxCell>
                <mxCell id="36" style="edgeStyle=none;html=1;fontSize=21;fontColor=#231b1b;deletable=0;" parent="42" edge="1">
                    <mxGeometry relative="1" as="geometry">
                        <mxPoint x="145" y="80" as="sourcePoint"/>
                        <mxPoint x="145" y="120" as="targetPoint"/>
                    </mxGeometry>
                </mxCell>
                <mxCell id="37" style="edgeStyle=none;html=1;entryX=0.5;entryY=0;entryDx=0;entryDy=0;fontSize=21;fontColor=#231b1b;deletable=0;" parent="42" edge="1">
                    <mxGeometry relative="1" as="geometry">
                        <mxPoint x="176.81726880130168" y="64.24172861051557" as="sourcePoint"/>
                        <mxPoint x="250" y="120" as="targetPoint"/>
                    </mxGeometry>
                </mxCell>
                <mxCell id="32" value="&lt;font color=&quot;#231b1b&quot;&gt;Login&lt;/font&gt;" style="ellipse;whiteSpace=wrap;html=1;aspect=fixed;fillColor=#dae8fc;strokeColor=#6c8ebf;gradientColor=#7ea6e0;deletable=0;" parent="42" vertex="1">
                    <mxGeometry y="120" width="80" height="80" as="geometry"/>
                </mxCell>
                <mxCell id="38" value="&lt;font color=&quot;#231b1b&quot;&gt;About&lt;/font&gt;" style="ellipse;whiteSpace=wrap;html=1;aspect=fixed;fillColor=#dae8fc;strokeColor=#6c8ebf;gradientColor=#7ea6e0;deletable=0;" vertex="1" parent="42">
                    <mxGeometry x="105" y="120" width="80" height="80" as="geometry"/>
                </mxCell>
                <mxCell id="43" style="edgeStyle=none;html=1;entryX=0.5;entryY=1;entryDx=0;entryDy=0;" edge="1" parent="42" source="39" target="32">
                    <mxGeometry relative="1" as="geometry">
                        <Array as="points">
                            <mxPoint x="250" y="270"/>
                            <mxPoint x="40" y="270"/>
                        </Array>
                    </mxGeometry>
                </mxCell>
                <mxCell id="39" value="&lt;font color=&quot;#231b1b&quot;&gt;Register&lt;/font&gt;" style="ellipse;whiteSpace=wrap;html=1;aspect=fixed;fillColor=#dae8fc;strokeColor=#6c8ebf;gradientColor=#7ea6e0;deletable=0;" vertex="1" parent="42">
                    <mxGeometry x="210" y="120" width="80" height="80" as="geometry"/>
                </mxCell>
                <mxCell id="40" value="&lt;font color=&quot;#231b1b&quot;&gt;Header&lt;/font&gt;" style="ellipse;whiteSpace=wrap;html=1;aspect=fixed;fillColor=#dae8fc;strokeColor=#6c8ebf;gradientColor=#7ea6e0;deletable=0;" vertex="1" parent="42">
                    <mxGeometry x="105" width="80" height="80" as="geometry"/>
                </mxCell>
                <mxCell id="44" style="edgeStyle=none;html=1;" edge="1" parent="1" source="32">
                    <mxGeometry relative="1" as="geometry">
                        <mxPoint x="180" y="310" as="targetPoint"/>
                    </mxGeometry>
                </mxCell>
                <mxCell id="45" style="edgeStyle=none;html=1;" edge="1" parent="1" source="32">
                    <mxGeometry relative="1" as="geometry">
                        <mxPoint x="170" y="670" as="targetPoint"/>
                    </mxGeometry>
                </mxCell>
            </root>
        </mxGraphModel>
    </diagram>
</mxfile>